/* XPM */
static char *_0d811e4b3294317b1c6ee1382b23ce92j3GLyPbSkWlG2Pn[] = {
/* columns rows colors chars-per-pixel */
"64 64 2 1 ",
"  c #59C135",
". c #9CDB43",
/* pixels */
"...................... ...................... ..................",
"...................... ...................... .. ...............",
".. ....  .........    ... ....  .........    .  .. .. ... ....  ",
" .......   . .......... .......   . ................... ....... ",
".  .....................  ..............................  ......",
".   ....................   .............................   .....",
". ........................... .................... . . . .......",
"  ........................... .. ....... .   .....  . .  .......",
"......... ....  .........    .  .. .. ... .......     ..........",
". .. .. .......   . .................................... .. ....",
"..   . .  ...............................................   .  .",
" .     .   ................................... .......  .       ",
".   .... ............................. .........  ... ..   .....",
".......  ............................. .. ..........  ..........",
" ................. ....  .........    .  .. .. ...... . ........",
".   .... .. .... .......   . ......................... .   .....",
".    ....   .  ..  .....................................    ....",
".  .... .       .   ....................................  ......",
".   .. .   ...... ......................... . . ....  ..   ..  .",
"   .............  .........   ... .   .....  . ..     .   ......",
". ..... .......................... .......     ...... .. .......",
".  .....   ...... .. ...................................  ......",
"... ....    ......   .  .............................. ... .....",
"   .....  ...... .       .............. .......  .... .   ..... ",
"........   ..  ..   ....................   ... .....  ..........",
".......   ...................................  .................",
". ...... ....................     .. . ....... ......... .......",
"..   ...  ..................    ..  ...........   ..   ..   ....",
".......... .....................................................",
".......   ..... ......................  ........................",
"  .... ...............  ..   ................  ..... ..  .... ..",
"   ..  ...................................     ......     ..   .",
"........ ..................................... ....... .........",
".........   .....  .................... .............. .. ......",
"................... ..... ........       ...... ..    .  .. .. .",
".. .............   ..... .   .......    . .... .................",
" ......  .... ...............................  .................",
".  ....   ..   .................................................",
".   ............. ...................... .................. . . ",
". ................   ...... . .     .....  ..   . .   .....  . .",
"  .........   ...........            ............. .......     .",
"................................................................",
". .. ...........  .... ............... ...... ..................",
"..   .  ........   ..   .....  ...... ........  ....... ....... ",
" .       .............. ....... .   ....................   ... .",
".   ....................   ... ..............................  .",
".............................  . ............     .. . ....... .",
" ............     .. . ....... ..   ........    ..  ........... ",
".   ........    ..  ........... .    ...........................",
".    .................................................  ........",
".  ...................  ........... ..  ..   ................  .",
".   ..  ..   ................ ............................     .",
"   .......................    ................................ .",
". ..................................................... ........",
".  .................... ........... ..... ........       ...... ",
"... ..... ............   ............... .   .......    . .... .",
"   ..... .   .........  . ...................................  .",
".............................  .................................",
"................................. ...................... .......",
". ...................... .........   ...... . .     .....  ..   ",
"..   ...... . .  ........  ..   .........            ...........",
".........        ...............................................",
"................................  .... ............... ...... ..",
"  .... ............... ...... ..   ..   .....  ...... ........  "
};
