/* XPM */
static char *_6f17defe5b54d89f80495b06587665dwDrM0GcLdHLBsLvu[] = {
/* columns rows colors chars-per-pixel */
"64 64 4 1 ",
"  c #423934",
". c #5A4E44",
"X c #796755",
"o c #A08662",
/* pixels */
"oooo oooo ooooo .Xoooooo oooo oooooo oooo ooooo .Xooo.ooooXooXX ",
"XoX. .XXX XoooX .XXXXoX. .XXX XoXoX. .XXX XoooX .XXXX XXXX XXXX.",
"XX.  ..X.  XXX  .XXXXX.  ..X.  XXX.  ..X.  XXX  .XXXX .XX. .XXX.",
"..  X .... ...   .XX..  X .... ...  X .... ...   .XX  ....  ... ",
"XX .X     X   X .   XX .X     X XX .X     X   X .   . ... .    .",
"X. .XXX. .XXXX. ....X. .XXX. .XXX. .XXX. .XXXX. .....  .. .XXXX.",
".   ...   ....   ....   ...   ...   ...   ....   ...     ...... ",
" oo.   ooo    oo     oo.   ooo   oo.   ooo    oo     ooo        ",
"ooooX oooooX oooX. oooooX oooooXooooX oooooX oooX. ooooo XooooXX",
"oXXX. XoooXX XXXX. XoXXX. XoooXXoXXX. XoooXX XXXX. XoooX .XXXXX.",
"XXX.. XXXXXX XXXX.  XXX.. XXXXXXXXX.. XXXXXX XXXX.  XXX  ..XXX..",
"     .XXXXX.  XX.        .XXXXX.     .XXXXX.  XX.   ... . ..... ",
"XXXX  .....  .   . XXXXX  ..... XXXX  .....  .   . X   ..      .",
".XX..        ..... ..XX..       .XX..        ..... .XXX... XXXX.",
" ..  ......   ...    ..  ......  ..  ......   ...   ....   .... ",
"o  .       oo     ooo  .       oo  .       oo     oo    ooo     ",
"ooo. oooo ooooo .Xooooo. oooo ooooo. oooo ooooo .Xooo.ooooXoooXX",
"XoX. .XXX XoooX .XXXXoX. .XXX XoXoX. .XXX XoooX .XXXX XXXX XXXX.",
"XX.  ..X.  XXX  .XXXXX.  ..X.  XXX.  ..X.  XXX  .XXXX .XX. .XXX.",
"    X .... ...   .XX    X .... .    X .... ...   .XX  ....  ... ",
"XX .X     X   X .   XX .X     X XX .X     X   X .   . ... .    .",
"X. .XXX. .XXXX. ....X. .XXX. .XXX. .XXX. .XXXX. .....  .. .XXXX.",
".   ...   ....   ....   ...   ...   ...   ....   ...     ...... ",
" oo.   ooo    oo     oo.   ooo   oo.   ooo    oo     ooo        ",
"ooooX oooooX oooX. oooooX oooooXooooX oooooX oooX. ooooo XooooXX",
"oXXX. XoooXX XXXX. XoXXX. XoooXXoXXX. XoooXX XXXX. XoooX .XXXXX.",
"XXX.. XXXXXX XXXX.  XXX.. XXXXXXXXX.. XXXXXX XXXX.  XXX  ..XXX..",
"...  .XXXXX.  XX.   ...  .XXXXX....  .XXXXX.  XX.   ... . ..... ",
"XXXX  .....  .   . XXXXX  ..... XXXX  .....  .   . X   ..      .",
".XX..        ..... ..XX..       .XX..        ..... .XXX... XXXX.",
" ..  ......   ...    ..  ......  ..  ......   ...   ....   .... ",
"o  .       oo     ooo  .       oo  .       oo     oo    ooX     ",
"oooo oooo ooooo .Xoooooo oooo oooooooo oooo ooooo .Xooo.ooooXooX",
"XoX. .XXX XoooX .XXXXoX. .XXX XoooXoX. .XXX XoooX .XXXX XXXX XXX",
"XX.  ..X.  XXX  .XXXXX.  ..X.  XXXXX.  ..X.  XXX  .XXXX .XX. .XX",
"..  X .... ...   .XX..  X .... .....  X .... ...   .XX  ....  ..",
"XX .X     X   X .   XX .X     X   XX .X     X   X .   . ... .   ",
"X. .XXX. .XXXX. ....X. .XXX. .XXXXX. .XXX. .XXXX. .....  .. .XXX",
".   ...   ....   ....   ...   .....   ...   ....   ...     .....",
" oo.   ooo    oo     oo.   ooo     oo.   ooo    oo     ooo      ",
"ooooX oooooX oooX. oooooX oooooX oooooX oooooX oooX. ooooo Xoooo",
"oXXX. XoooXX XXXX. XoXXX. XoooXX XoXXX. XoooXX XXXX. XoooX .XXXX",
"XXX.. XXXXXX XXXX.  XXX.. XXXXXX XXXX.. XXXXXX XXXX.  XXX  ..XXX",
"     .XXXXX.  XX.        .XXXXX.       .XXXXX.  XX.   ... . ....",
"XXXX  .....  .   . XXXXX  .....  .XXXX  .....  .   . X   ..     ",
".XX..        ..... ..XX..        ..XX..        ..... .XXX... XXX",
" ..  ......   ...    ..  ......    ..  ......   ...   ....   ...",
"o  .       oo     ooo  .       oo o  .       oo     oo    ooo   ",
"ooo. oooo ooooo .Xooooo. oooo ooooooo. oooo ooooo .Xooo.ooooXooo",
"XoX. .XXX XoooX .XXXXoX. .XXX XoooXoX. .XXX XoooX .XXXX XXXX XXX",
"XX.  ..X.  XXX  .XXXXX.  ..X.  XXXXX.  ..X.  XXX  .XXXX .XX. .XX",
"    X .... ...   .XX    X .... ...    X .... ...   .XX  ....  ..",
"XX .X     X   X .   XX .X     X   XX .X     X   X .   . ... .   ",
"X. .XXX. .XXXX. ....X. .XXX. .XXXXX. .XXX. .XXXX. .....  .. .XXX",
".   ...   ....   ....   ...   .....   ...   ....   ...     .....",
" oo.   ooo    oo     oo.   ooo     oo.   ooo    oo     ooo      ",
"ooooX oooooX oooX. oooooX oooooX oooooX oooooX oooX. ooooo Xoooo",
"oXXX. XoooXX XXXX. XoXXX. XoooXX XoXXX. XoooXX XXXX. XoooX .XXXX",
"XXX.. XXXXXX XXXX.  XXX.. XXXXXX XXXX.. XXXXXX XXXX.  XXX  ..XXX",
"...  .XXXXX.  XX.   ...  .XXXXX.  ...  .XXXXX.  XX.   ... . ....",
"XXXX  .....  .   . XXXXX  .....  .XXXX  .....  .   . X   ..     ",
".XX..        ..... ..XX..        ..XX..        ..... .XXX... XXX",
" ..  ......   ...    ..  ......    ..  ......   ...   ....   ...",
"o  .       oo     ooo  .       oo o  .       oo     oo    ooX   "
};
